<svg xmlns="http://www.w3.org/2000/svg" width="24" height="24" viewBox="0 0 256 256"><path d="M229.296 43.824c-18.105-20.58-42.135-26.22-69.48-16.275l4.32 11.88-4.32-11.88q-3.795 1.395-7.485 3.075c-23.325 10.62-33.87 31.065-41.58 45.99-2.295 4.44-5.4 10.485-7.11 12.09-4.8 2.235-9.36 4.005-14.19 5.88-12.51 4.845-25.455 9.87-42.18 22.83-23.025 17.835-34.29 40.29-34.47 68.67-.09 15.435 6.405 28.635 18.315 37.185 11.865 8.52 33.975 15.945 72.015 2.865l1.71-.6c33.18-12.045 47.805-36.93 55.665-50.295 1.59-2.7 3.39-5.775 4.245-6.735 2.655-3 9.33-6.57 17.79-11.085 8.205-4.38 18.42-9.825 30.705-17.7a64.05 64.05 0 0 0 29.265-45.615c2.64-18.735-2.43-38.01-13.215-50.28m-22.86 85.245c-26.745 17.13-43.665 22.59-51.15 31.065-7.38 8.37-17.475 39.99-54.765 53.52l-1.5.525c-48.675 16.725-73.74-2.025-73.59-28.02.15-23.025 8.58-42.495 29.565-58.77 21.675-16.8 36.345-18.96 54.39-27.45 12.15-5.7 16.83-43.575 48.15-57.84q3.24-1.485 6.57-2.7c27.48-9.99 44.775.345 55.68 12.75 14.73 16.74 17.805 56.94-13.365 76.905"/><path d="M195.906 71.064a3.976 3.976 0 0 0 6.93 3.9 75 75 0 0 0 4.125-8.55 3.975 3.975 0 0 0-7.35-3.03q-.39.975-1.275 2.925-1.125 2.43-2.445 4.755M104 160.389a3.97 3.97 0 0 0 5.61.375c4.83-4.215 9.63-8.505 14.31-12.735a3.972 3.972 0 1 0-5.325-5.895 1065 1065 0 0 1-14.22 12.645 3.975 3.975 0 0 0-.375 5.61m46.005-46.365c-4.47 3.78-9.315 8.1-14.43 12.705a3.972 3.972 0 1 0 5.325 5.895c5.085-4.59 9.87-8.85 14.235-12.54a3.975 3.975 0 0 0-5.13-6.06m-63.045 55.35c-5.175 4.11-10.245 7.89-15.105 11.175a3.975 3.975 0 0 0 4.455 6.585c5.085-3.435 10.305-7.335 15.6-11.535a3.972 3.972 0 1 0-4.935-6.225m95.775-80.94c-3.84 3.9-8.46 7.89-14.04 11.715a3.96 3.96 0 0 0-1.035 5.52 3.96 3.96 0 0 0 5.52 1.035 105 105 0 0 0 15.21-12.705 3.962 3.962 0 1 0-5.655-5.55M52.716 190.989l-.24.09a30 30 0 0 1-7.515 1.845 3.971 3.971 0 1 0 .765 7.905q4.59-.48 9.465-2.28l.27-.105a3.975 3.975 0 0 0-2.745-7.455m57.81-3.03q-1.56 1.245-3.18 2.385-4.05 2.835-8.37 5.19a3.435 3.435 0 0 0 3.285 6.015 90 90 0 0 0 9.015-5.595q1.815-1.275 3.54-2.67a3.435 3.435 0 1 0-4.305-5.34M83 202.359a90 90 0 0 1-13.56 3.21 3.428 3.428 0 1 0 1.11 6.765 105 105 0 0 0 14.535-3.45 3.435 3.435 0 1 0-2.07-6.54m52.365-39.33a3.45 3.45 0 0 0-4.725 1.08 120 120 0 0 1-8.07 11.52 3.435 3.435 0 0 0 5.37 4.26 135 135 0 0 0 8.505-12.135 3.45 3.45 0 0 0-1.08-4.725m14.79-26.235a28.5 28.5 0 0 0-7.23 6.615 75 75 0 0 0-3.24 5.205 3.45 3.45 0 0 0 1.245 4.68 3.45 3.45 0 0 0 4.695-1.245c1.095-1.905 2.085-3.525 2.925-4.71.96-1.395 2.85-3.105 5.475-4.875a3.45 3.45 0 0 0-3.87-5.67m53.175-34.32c-2.4 3.435-5.43 6.645-9.27 9.33l-.015.015a3.43 3.43 0 1 0 3.945 5.61l.015-.015c4.56-3.195 8.145-7.005 10.95-11.01a3.435 3.435 0 0 0-5.61-3.945m12.435-32.085a3.45 3.45 0 0 0-3.42 3.45c0 .165-.03 6-2.04 13.365a3.435 3.435 0 0 0 6.615 1.815c2.325-8.475 2.28-15 2.295-15.21a3.45 3.45 0 0 0-3.45-3.405m-36.81 50.655c-4.335 2.385-8.64 4.59-12.705 6.675a3.45 3.45 0 0 0-1.485 4.62 3.45 3.45 0 0 0 4.62 1.47c4.05-2.085 8.415-4.32 12.87-6.765a3.435 3.435 0 0 0-3.3-6.015M164.99 59.259a3.96 3.96 0 0 0-5.61.03 90 90 0 0 0-11.64 14.835 3.98 3.98 0 0 0 6.705 4.29c3.06-4.8 6.54-9.42 10.605-13.53a3.975 3.975 0 0 0-.03-5.625m16.395-5.985a54 54 0 0 1 14.34-4.23 3.99 3.99 0 0 0-1.23-7.86 64.5 64.5 0 0 0-16.395 4.86 3.99 3.99 0 0 0-1.98 5.265 3.95 3.95 0 0 0 5.25 1.965m-46.29 60.15c3.225-4.395 5.985-10.095 9.12-16.365a3.975 3.975 0 0 0-7.11-3.54c-3.12 6.285-5.85 11.745-8.4 15.195a3.975 3.975 0 0 0 6.39 4.71m-83.895 55.635a3.973 3.973 0 1 0-5.91-5.31c-4.8 5.355-8.55 10.77-10.59 16.35a3.975 3.975 0 0 0 7.47 2.7c1.47-4.125 4.635-8.865 9.015-13.74m48.06-35.85c5.745-3.255 11.16-6.045 15.765-8.22a3.975 3.975 0 0 0-3.375-7.185c-4.83 2.265-10.395 5.145-16.305 8.49a3.975 3.975 0 0 0 3.915 6.915m-18.21 11.22a3.975 3.975 0 0 0-4.41-6.615c-5.1 3.42-10.14 7.05-14.88 10.8a3.975 3.975 0 0 0 4.935 6.225c4.545-3.6 9.42-7.11 14.37-10.425"/></svg>